The Cowboys 1972 BluRay 1080p ac3 x264

Encoded by Tequila-Bob
Source NTSC BluRay Disc
 
http://www.imdb.com/title/tt0068421/

Release Date:13 January 1972 (USA) 
 
http://photobucket.com/the_cowboys_tequila_bob


Storyline
When his cattle drivers abandon him for the gold fields, rancher Wil Andersen is forced to take on a collection of young boys as his drivers in order to get his herd to market in time to avoid financial disaster. The boys learn to do a man's job under Andersen's tutelage, however, neither Andersen nor the boys know that a gang of cattle thieves is stalking them. 

Iceland:12 / Australia:M / Canada:PG (video rating) / West Germany:16 (f) / Finland:K-16 / Norway:16 / Sweden:15 / UK:12 (video re-rating: this work has been approved under the different versions categories policy 2004) (2005) (uncut) / UK:A (original rating) (passed with cuts) / UK:PG (video rating) (1987) (cut) / USA:GP (original rating) / USA:PG 

Cast
Cast overview, first billed only: 
  John Wayne  ...  Wil Andersen  
  Roscoe Lee Browne  ...  Jebediah Nightlinger  
  Bruce Dern  ...  Long Hair  
  Colleen Dewhurst  ...  Kate  
  Alfred Barker Jr.  ...  Fats - Cowboy  
  Nicolas Beauvy  ...  Dan - Cowboy  
  Steve Benedict  ...  Steve - Cowboy  
  Robert Carradine  ...  Slim Honeycutt - Cowboy  
  Norman Howell  ...  Weedy - Cowboy (as Norman Howell Jr.)  
  Stephen R. Hudis  ...  Charlie Schwartz - Cowboy (as Stephen Hudis)  
  Sean Kelly  ...  Stuttering Bob - Cowboy  
  A Martinez  ...  Cimarron - Cowboy  
  Clay O'Brien  ...  Hardy Fimps - Cowboy  
  Sam O'Brien  ...  Jimmy Phillips - Cowboy  
  Mike Pyeatt  ...  Homer Weems - Cowboy 

Format : Matroska 
File size : 7.99 GiB 
Duration : 2h 14mn 
Overall bit rate : 8 513 Kbps 
Encoded date : UTC 2010-10-15 20:56:12 
Writing application : mkvmerge v4.3.0 

Format settings, ReFrames : 9 frames 
Muxing mode : Container profile=Unknown@5.0 
Codec ID : V_MPEG4/ISO/AVC 
Duration : 2h 14mn 
Bit rate : 7 825 Kbps 
Width : 1 920 pixels 
Height : 800 pixels 
Display aspect ratio : 2.40:1 
Frame rate : 23.976 fps 
Color space : YUV 
Chroma subsampling : 4:2:0 
Bit depth : 8 bits 
Scan type : Progressive 
Bits/(Pixel*Frame) : 0.212 
Stream size : 7.23 GiB (90%) 

Codec ID : A_AC3 
Duration : 2h 14mn 
Bit rate mode : Constant 
Bit rate : 640 Kbps 
Channel(s) : 6 channels 
Channel positions : Front: L C R, Side: L R, LFE 
Sampling rate : 48.0 KHz 
Bit depth : 16 bits 
Stream size : 616 MiB (8%) 
Title : 3/2+1 
Language : English 

Text #1  
Language : English 

Text #2  
Language : English 

Text #3 
Language : French 

Text #4 
Language : Spanish 

Menu 
Chapters 36

[img]http://torrent-stats.info/24a5/22d27f79.png[/img]
 
http://photobucket.com/the_cowboys_tequila_bob


